<svg width="41" height="31" viewBox="0 0 41 31" fill="none" xmlns="http://www.w3.org/2000/svg">
<path fill-rule="evenodd" clip-rule="evenodd" d="M23.713 21.9294L17.1465 12.8994L24.103 21.6347C24.183 21.734 24.1617 21.8826 24.0552 21.9665C23.9491 22.0499 23.7987 22.0366 23.7191 21.9378C23.7168 21.9352 23.7148 21.9324 23.713 21.9294Z" fill="#010202"/>
<path d="M23.7566 21.5725C24.12 22.0367 24.4548 26.1122 24.4548 26.1122C24.4548 26.1122 26.8374 23.4175 27.3748 19.6389C27.9113 15.8602 27.1792 15.355 26.5435 13.4359C25.9079 11.5168 23.2261 9.04269 21.8539 8.36328C20.8644 7.87357 17.6957 6.76004 15.9792 6.16842C15.3609 5.95666 14.664 6.30607 14.4444 6.93431C13.4253 9.85401 13.2318 12.9771 14.0722 15.8522C14.5709 17.557 15.4283 19.1672 16.8948 19.9561C16.8948 19.9561 20.3105 21.659 22.5848 21.2284C24.8583 20.7978 24.44 25.1372 24.44 25.1372" stroke="#010202" stroke-width="0.5" stroke-linecap="round" stroke-linejoin="round"/>
<path fill-rule="evenodd" clip-rule="evenodd" d="M21.1882 29.8626L19.443 30.1679L17.8204 29.4479L16.0543 29.3204L14.6487 28.2272L12.9634 27.6744L11.8569 26.2715L10.3513 25.326L9.60735 23.6954L8.36822 22.4116L8.03083 20.6469L7.13083 19.0997L7.21909 17.305L6.70996 15.584L7.21866 13.8629L7.13083 12.0682L8.03083 10.5206L8.36822 8.75677L9.60735 7.47294L10.3508 5.84191L11.8569 4.89603L12.9634 3.49309L14.6487 2.94074L16.0543 1.8475L17.8204 1.72L19.443 1L21.1882 1.30529L22.9334 1L24.556 1.72L26.3221 1.8475L27.7278 2.94074L29.413 3.49353L30.5195 4.89647L32.0252 5.84191L32.7691 7.4725L34.0082 8.75632L34.3456 10.521L35.2456 12.0682L35.1574 13.8629L35.6665 15.584L35.1578 17.305L35.2456 19.0997L34.3456 20.6474L34.0082 22.4112L32.7691 23.695L32.0256 25.326L30.5195 26.2719L29.413 27.6749L27.7278 28.2272L26.3221 29.3204L24.556 29.4479L22.9334 30.1679L21.1882 29.8626Z" stroke="black" stroke-width="0.5"/>
</svg>
